<?xml version="1.0" encoding="utf-8"?>
<!-- Generator: Adobe Illustrator 15.1.0, SVG Export Plug-In . SVG Version: 6.00 Build 0)  -->
<!DOCTYPE svg PUBLIC "-//W3C//DTD SVG 1.1//EN" "http://www.w3.org/Graphics/SVG/1.1/DTD/svg11.dtd">
<svg version="1.1" id="Layer_1" xmlns="http://www.w3.org/2000/svg" xmlns:xlink="http://www.w3.org/1999/xlink" x="0px" y="0px"
	 width="300px" height="400px" viewBox="0 0 300 400" enable-background="new 0 0 300 400" xml:space="preserve">
<g>
	<g>
		<g>
			<path fill="#F05A22" d="M160.447,218.01c-2.603,8.452-7.432,15.371-10.758,15.371c-3.314,0-8.156-6.919-10.746-15.371
				l-17.363-56.488c-2.592-8.451,2.507-15.37,11.361-15.37h33.497c8.854,0,13.954,6.919,11.363,15.37L160.447,218.01z"/>
			<path fill="#F05A22" d="M128.893,222.35c4.143,7.816,5.61,16.127,3.267,18.47c-2.343,2.344-10.666,0.876-18.477-3.267
				L61.472,209.89c-7.812-4.141-9.089-12.653-2.84-18.902l23.696-23.689c6.251-6.256,14.747-4.978,18.892,2.833L128.893,222.35z"/>
			<path fill="#F05A22" d="M109.649,247.731c8.448,2.593,15.362,7.434,15.362,10.755c0,3.306-6.914,8.149-15.362,10.751
				l-56.497,17.354c-8.452,2.59-15.364-2.518-15.364-11.364v-33.496c0-8.845,6.912-13.956,15.364-11.356L109.649,247.731z"/>
			<path fill="#F05A22" d="M113.979,279.288c7.824-4.144,16.131-5.61,18.477-3.268c2.343,2.344,0.874,10.654-3.267,18.47
				l-27.663,52.216c-4.152,7.812-12.652,9.092-18.902,2.842l-23.695-23.697c-6.251-6.249-4.984-14.759,2.84-18.902L113.979,279.288z
				"/>
			<path fill="#F05A22" d="M139.366,298.531c2.593-8.454,7.434-15.373,10.749-15.373c3.326,0,8.155,6.911,10.76,15.369
				l17.352,56.489c2.593,8.452-2.507,15.371-11.363,15.371h-33.497c-8.854,0-13.954-6.919-11.363-15.371L139.366,298.531z"/>
			<path fill="#F05A22" d="M170.925,294.189c-4.146-7.812-5.612-16.134-3.267-18.478c2.341-2.343,10.65-0.871,18.462,3.27
				l52.223,27.67c7.814,4.144,9.08,12.65,2.83,18.904l-23.686,23.684c-6.249,6.262-14.759,4.984-18.902-2.832L170.925,294.189z"/>
			<path fill="#F05A22" d="M190.156,268.806c-8.449-2.598-15.361-7.437-15.361-10.754c0-3.312,6.912-8.155,15.361-10.745
				l56.497-17.359c8.45-2.597,15.373,2.518,15.373,11.356v33.504c0,8.847-6.923,13.956-15.373,11.356L190.156,268.806z"/>
			<path fill="#F05A22" d="M185.823,237.244c-7.809,4.143-16.131,5.617-18.474,3.278c-2.344-2.348-0.877-10.658,3.267-18.477
				l27.673-52.209c4.143-7.817,12.643-9.097,18.89-2.841l23.698,23.685c6.249,6.255,4.969,14.76-2.84,18.903L185.823,237.244z"/>
		</g>
		<g>
			<path fill="#F26F21" d="M154.141,206.423c-1.362,10.965-5.824,20.535-9.898,21.253c-4.082,0.722-11.551-6.741-16.568-16.59
				l-33.639-65.763c-5.034-9.847-0.237-19.47,10.651-21.388l41.239-7.273c10.889-1.923,18.677,5.487,17.315,16.458L154.141,206.423z
				"/>
			<path fill="#F26F21" d="M116.24,218.615c6.792,8.716,10.416,18.629,8.025,22.026c-2.367,3.397-12.926,3.386-23.449-0.012
				l-70.272-22.725c-10.523-3.405-13.933-13.596-7.6-22.644l24.03-34.309c6.33-9.055,17.078-9.333,23.874-0.609L116.24,218.615z"/>
			<path fill="#F26F21" d="M98.058,254.035c10.972,1.367,20.538,5.816,21.259,9.9c0.722,4.077-6.748,11.542-16.582,16.57
				l-65.775,33.63c-9.849,5.028-19.472,0.239-21.388-10.648l-7.268-41.244c-1.916-10.884,5.48-18.677,16.454-17.316L98.058,254.035z
				"/>
			<path fill="#F26F21" d="M110.252,291.94c8.723-6.8,18.641-10.404,22.036-8.037c3.388,2.379,3.388,12.938-0.024,23.449
				l-22.725,70.283c-3.397,10.521-13.588,13.938-22.644,7.601l-34.313-24.023c-9.056-6.339-9.326-17.085-0.603-23.881
				L110.252,291.94z"/>
			<path fill="#F26F21" d="M145.677,310.123c1.363-10.974,5.812-20.538,9.894-21.26c4.086-0.722,11.541,6.741,16.572,16.582
				l33.628,65.775c5.03,9.842,0.237,19.472-10.651,21.388l-41.242,7.268c-10.888,1.924-18.676-5.486-17.315-16.454L145.677,310.123z
				"/>
			<path fill="#F26F21" d="M183.575,297.924c-6.793-8.724-10.414-18.636-8.037-22.033c2.382-3.391,12.926-3.386,23.451,0.012
				l70.284,22.738c10.521,3.396,13.93,13.588,7.598,22.642l-24.017,34.309c-6.344,9.056-17.09,9.326-23.885,0.607L183.575,297.924z"
				/>
			<path fill="#F26F21" d="M201.758,262.504c-10.972-1.372-20.535-5.824-21.258-9.9c-0.724-4.084,6.734-11.539,16.582-16.578
				l65.775-33.615c9.847-5.037,19.47-0.249,21.386,10.642l7.27,41.237c1.917,10.889-5.479,18.676-16.453,17.323L201.758,262.504z"/>
			<path fill="#F26F21" d="M189.554,224.591c-8.711,6.796-18.629,10.416-22.026,8.037c-3.386-2.372-3.386-12.923,0.012-23.437
				l22.727-70.289c3.407-10.523,13.601-13.938,22.651-7.599l34.315,24.021c9.044,6.339,9.314,17.091,0.604,23.88L189.554,224.591z"
				/>
		</g>
		<g>
			<path fill="#F48120" d="M145.558,211.656c0.511,9.929-1.954,19.113-5.456,20.381c-3.504,1.277-11.28-4.172-17.28-12.109
				l-40.079-53.039c-6.002-7.935-3.255-17.215,6.083-20.619l35.427-12.884c9.35-3.409,17.411,1.941,17.921,11.877L145.558,211.656z"
				/>
			<path fill="#F48120" d="M113.858,228.381c7.401,6.667,12.147,14.889,10.573,18.268c-1.574,3.391-10.936,5.031-20.799,3.656
				L37.8,241.149c-9.849-1.372-14.476-9.872-10.273-18.885L43.458,188.1c4.203-9.019,13.681-10.936,21.067-4.273L113.858,228.381z"
				/>
			<path fill="#F48120" d="M103.291,262.623c9.929-0.511,19.116,1.941,20.393,5.441c1.268,3.512-4.177,11.288-12.119,17.29
				l-53.04,40.083c-7.942,6.002-17.211,3.255-20.618-6.095l-12.89-35.415c-3.397-9.353,1.942-17.411,11.883-17.919L103.291,262.623z
				"/>
			<path fill="#F48120" d="M120.015,294.311c6.677-7.39,14.901-12.136,18.275-10.566c3.386,1.579,5.031,10.932,3.657,20.79
				l-9.16,65.839c-1.373,9.86-9.873,14.472-18.893,10.281l-34.159-15.932c-9.018-4.203-10.936-13.684-4.274-21.079L120.015,294.311z
				"/>
			<path fill="#F48120" d="M154.257,304.89c-0.508-9.929,1.942-19.115,5.457-20.39c3.504-1.282,11.28,4.174,17.282,12.108
				l40.078,53.047c5.988,7.93,3.255,17.216-6.095,20.618l-35.418,12.89c-9.35,3.398-17.41-1.946-17.919-11.883L154.257,304.89z"/>
			<path fill="#F48120" d="M185.944,288.151c-7.374-6.667-12.133-14.882-10.57-18.268c1.586-3.382,10.937-5.024,20.797-3.652
				l65.844,9.163c9.849,1.365,14.477,9.869,10.273,18.883l-15.929,34.166c-4.202,9.013-13.697,10.936-21.069,4.273L185.944,288.151z
				"/>
			<path fill="#F48120" d="M196.524,253.923c-9.941,0.497-19.113-1.953-20.396-5.456c-1.277-3.504,4.17-11.282,12.124-17.282
				l53.027-40.078c7.954-6,17.221-3.26,20.63,6.09l12.891,35.419c3.395,9.346-1.942,17.413-11.872,17.914L196.524,253.923z"/>
			<path fill="#F48120" d="M179.788,222.224c-6.662,7.387-14.89,12.145-18.263,10.571c-3.386-1.574-5.031-10.932-3.657-20.785
				l9.163-65.845c1.37-9.854,9.87-14.482,18.878-10.275l34.171,15.926c9.006,4.208,10.924,13.689,4.262,21.074L179.788,222.224z"/>
		</g>
	</g>
	<g>
		<g>
			<path fill="#BE1E2D" d="M156.211,61.31c-1.55,5.059-4.451,9.203-6.438,9.203c-1.978,0-4.877-4.144-6.427-9.203l-10.393-33.817
				c-1.562-5.06,1.503-9.203,6.793-9.203h20.063c5.292,0,8.346,4.143,6.795,9.203L156.211,61.31z"/>
			<path fill="#BE1E2D" d="M137.321,63.907c2.483,4.682,3.36,9.659,1.964,11.061c-1.408,1.402-6.392,0.521-11.067-1.959
				l-31.26-16.558c-4.678-2.48-5.433-7.575-1.693-11.316l14.179-14.187c3.742-3.746,8.83-2.978,11.316,1.699L137.321,63.907z"/>
			<path fill="#BE1E2D" d="M125.801,79.106c5.069,1.549,9.198,4.45,9.198,6.438c0,1.982-4.129,4.875-9.198,6.433L91.986,102.37
				c-5.066,1.55-9.208-1.509-9.208-6.8V75.513c0-5.296,4.141-8.356,9.208-6.8L125.801,79.106z"/>
			<path fill="#BE1E2D" d="M128.394,97.995c4.689-2.479,9.661-3.361,11.069-1.953c1.396,1.403,0.52,6.375-1.954,11.056
				l-16.572,31.26c-2.484,4.675-7.574,5.445-11.313,1.699L95.441,125.87c-3.751-3.739-2.979-8.83,1.693-11.309L128.394,97.995z"/>
			<path fill="#BE1E2D" d="M143.592,109.519c1.562-5.067,4.454-9.203,6.439-9.203c1.989,0,4.889,4.136,6.438,9.197l10.393,33.816
				c1.551,5.066-1.5,9.208-6.805,9.208h-20.051c-5.302,0-8.357-4.142-6.805-9.208L143.592,109.519z"/>
			<path fill="#BE1E2D" d="M162.484,106.92c-2.475-4.681-3.362-9.658-1.952-11.061c1.406-1.409,6.378-0.526,11.055,1.954
				l31.261,16.564c4.687,2.48,5.444,7.575,1.702,11.322l-14.191,14.179c-3.739,3.747-8.83,2.977-11.304-1.699L162.484,106.92z"/>
			<path fill="#BE1E2D" d="M174.002,91.722c-5.055-1.556-9.195-4.455-9.195-6.439c0-1.981,4.141-4.883,9.195-6.438l33.826-10.387
				c5.056-1.557,9.198,1.504,9.198,6.8v20.057c0,5.297-4.143,8.356-9.198,6.801L174.002,91.722z"/>
			<path fill="#BE1E2D" d="M171.409,72.825c-4.675,2.48-9.658,3.363-11.057,1.96c-1.406-1.403-0.532-6.379,1.954-11.055
				l16.561-31.26c2.483-4.682,7.576-5.446,11.313-1.705l14.182,14.186c3.751,3.741,2.982,8.836-1.693,11.316L171.409,72.825z"/>
		</g>
		<g>
			<path fill="#CD181F" d="M152.437,54.373c-0.808,6.562-3.481,12.293-5.919,12.724c-2.45,0.432-6.912-4.036-9.92-9.932
				l-20.146-39.373c-3.003-5.894-0.128-11.652,6.382-12.807l24.69-4.35c6.522-1.154,11.183,3.284,10.369,9.849L152.437,54.373z"/>
			<path fill="#CD181F" d="M129.745,61.669c4.072,5.22,6.237,11.156,4.817,13.193c-1.432,2.029-7.743,2.023-14.037-0.006
				l-42.08-13.607c-6.296-2.041-8.346-8.143-4.559-13.559l14.396-20.541c3.787-5.422,10.226-5.581,14.284-0.361L129.745,61.669z"/>
			<path fill="#CD181F" d="M118.868,82.874c6.57,0.817,12.297,3.485,12.724,5.93c0.425,2.444-4.036,6.908-9.932,9.926l-39.38,20.128
				c-5.893,3.012-11.648,0.147-12.795-6.374l-4.357-24.69c-1.147-6.516,3.279-11.187,9.849-10.37L118.868,82.874z"/>
			<path fill="#CD181F" d="M126.157,105.57c5.233-4.071,11.164-6.231,13.197-4.81c2.037,1.426,2.025,7.74-0.012,14.038
				l-13.598,42.078c-2.035,6.296-8.144,8.339-13.564,4.551l-20.538-14.381c-5.42-3.799-5.584-10.232-0.365-14.298L126.157,105.57z"
				/>
			<path fill="#CD181F" d="M147.381,116.455c0.805-6.57,3.469-12.293,5.917-12.724c2.441-0.438,6.914,4.037,9.92,9.923l20.134,39.38
				c3.006,5.896,0.143,11.653-6.379,12.801l-24.693,4.356c-6.508,1.149-11.171-3.285-10.354-9.854L147.381,116.455z"/>
			<path fill="#CD181F" d="M170.059,109.151c-4.058-5.22-6.224-11.157-4.806-13.186c1.422-2.036,7.742-2.03,14.039,0.006
				l42.077,13.606c6.299,2.036,8.346,8.143,4.547,13.564l-14.381,20.529c-3.79,5.422-10.229,5.588-14.301,0.368L170.059,109.151z"/>
			<path fill="#CD181F" d="M180.949,87.947c-6.569-0.817-12.297-3.487-12.724-5.925c-0.439-2.449,4.024-6.911,9.929-9.923
				l39.368-20.128c5.896-3.013,11.66-0.147,12.808,6.374l4.356,24.685c1.146,6.522-3.291,11.186-9.846,10.375L180.949,87.947z"/>
			<path fill="#CD181F" d="M173.646,65.25c-5.221,4.066-11.149,6.239-13.187,4.813c-2.035-1.421-2.035-7.736,0-14.032l13.614-42.079
				c2.035-6.304,8.144-8.344,13.553-4.55l20.547,14.38c5.421,3.794,5.575,10.233,0.354,14.299L173.646,65.25z"/>
		</g>
		<g>
			<path fill="#F05A22" d="M147.31,57.503c0.297,5.949-1.173,11.445-3.267,12.204c-2.108,0.763-6.757-2.498-10.356-7.25
				l-23.993-31.751c-3.587-4.752-1.954-10.311,3.645-12.345l21.212-7.718c5.599-2.036,10.428,1.167,10.722,7.115L147.31,57.503z"/>
			<path fill="#F05A22" d="M128.325,67.517c4.426,3.994,7.28,8.913,6.332,10.936c-0.947,2.031-6.546,3.013-12.451,2.19l-39.416-5.48
				c-5.896-0.823-8.664-5.906-6.157-11.304l9.54-20.452c2.521-5.404,8.191-6.553,12.617-2.557L128.325,67.517z"/>
			<path fill="#F05A22" d="M121.991,88.017c5.955-0.301,11.46,1.167,12.216,3.263c0.757,2.1-2.498,6.758-7.254,10.351
				l-31.758,23.992c-4.747,3.592-10.297,1.953-12.332-3.646l-7.719-21.205c-2.035-5.599,1.161-10.422,7.114-10.724L121.991,88.017z"
				/>
			<path fill="#F05A22" d="M132.017,106.986c3.989-4.422,8.913-7.262,10.936-6.322c2.025,0.947,3.008,6.545,2.191,12.446
				l-5.479,39.415c-0.831,5.907-5.919,8.665-11.316,6.155l-20.455-9.54c-5.397-2.516-6.546-8.191-2.555-12.617L132.017,106.986z"/>
			<path fill="#F05A22" d="M152.52,113.323c-0.309-5.948,1.158-11.445,3.267-12.208c2.082-0.764,6.745,2.498,10.343,7.25
				l23.98,31.756c3.6,4.748,1.954,10.31-3.645,12.347l-21.2,7.716c-5.599,2.036-10.428-1.166-10.723-7.113L152.52,113.323z"/>
			<path fill="#F05A22" d="M171.48,103.305c-4.414-3.996-7.258-8.913-6.32-10.937c0.947-2.024,6.544-3.013,12.438-2.19l39.428,5.487
				c5.896,0.816,8.664,5.912,6.154,11.304l-9.54,20.453c-2.521,5.398-8.2,6.55-12.619,2.563L171.48,103.305z"/>
			<path fill="#F05A22" d="M177.812,82.81c-5.94,0.301-11.435-1.166-12.204-3.267c-0.767-2.095,2.498-6.752,7.256-10.345
				l31.745-23.993c4.76-3.592,10.309-1.953,12.346,3.646l7.717,21.205c2.037,5.592-1.158,10.422-7.102,10.723L177.812,82.81z"/>
			<path fill="#F05A22" d="M167.798,63.836c-3.986,4.415-8.911,7.268-10.936,6.32c-2.025-0.94-3.009-6.54-2.189-12.435l5.491-39.426
				c0.814-5.9,5.908-8.669,11.293-6.149l20.466,9.534c5.385,2.516,6.532,8.197,2.543,12.618L167.798,63.836z"/>
		</g>
	</g>
</g>
</svg>
