<?xml version="1.0" encoding="utf-8"?>
<!-- Generator: Adobe Illustrator 15.1.0, SVG Export Plug-In . SVG Version: 6.00 Build 0)  -->
<!DOCTYPE svg PUBLIC "-//W3C//DTD SVG 1.1//EN" "http://www.w3.org/Graphics/SVG/1.1/DTD/svg11.dtd">
<svg version="1.1" id="Layer_1" xmlns="http://www.w3.org/2000/svg" xmlns:xlink="http://www.w3.org/1999/xlink" x="0px" y="0px"
	 width="400px" height="400px" viewBox="0 0 400 400" enable-background="new 0 0 400 400" xml:space="preserve">
<g>
	<path d="M381.323,356.266H18.655c-5.095,0-9.219-4.124-9.219-9.219V79.649c0-5.09,4.124-9.22,9.219-9.22h362.668
		c5.101,0,9.231,4.13,9.231,9.22v267.397C390.555,352.142,386.424,356.266,381.323,356.266z M27.875,337.821h344.23V88.874H27.875
		V337.821z"/>
	<path d="M201.144,318.229c-58.463,0-106.039-47.564-106.039-106.032c0-58.469,47.576-106.036,106.039-106.036
		c58.468,0,106.038,47.567,106.038,106.036C307.182,270.665,259.611,318.229,201.144,318.229z M201.144,124.603
		c-48.301,0-87.6,39.293-87.6,87.595c0,48.301,39.299,87.594,87.6,87.594c48.301,0,87.6-39.293,87.6-87.594
		C288.743,163.896,249.444,124.603,201.144,124.603z"/>
	<path d="M201.601,285.02c-40.007,0-72.543-32.547-72.543-72.549c0-40.004,32.536-72.548,72.543-72.548
		c40.001,0,72.554,32.544,72.554,72.548C274.154,252.473,241.602,285.02,201.601,285.02z M201.601,149.142
		c-34.918,0-63.324,28.412-63.324,63.329c0,34.912,28.406,63.324,63.324,63.324c34.923,0,63.323-28.412,63.323-63.324
		C264.924,177.553,236.523,149.142,201.601,149.142z"/>
	<path d="M354.625,84.838h-72.799c-3.827,0-6.918-3.093-6.918-6.917V51.989c0-3.819,3.091-6.915,6.918-6.915h72.799
		c3.827,0,6.918,3.096,6.918,6.915v25.933C361.543,81.746,358.452,84.838,354.625,84.838z M288.743,71.007h58.965V58.906h-58.965
		V71.007z"/>
</g>
</svg>
