<?xml version="1.0" encoding="utf-8"?>
<!-- Generator: Adobe Illustrator 15.1.0, SVG Export Plug-In . SVG Version: 6.00 Build 0)  -->
<!DOCTYPE svg PUBLIC "-//W3C//DTD SVG 1.1//EN" "http://www.w3.org/Graphics/SVG/1.1/DTD/svg11.dtd">
<svg version="1.1" id="Layer_1" xmlns="http://www.w3.org/2000/svg" xmlns:xlink="http://www.w3.org/1999/xlink" x="0px" y="0px"
	 width="400px" height="200px" viewBox="0 0 400 200" enable-background="new 0 0 400 200" xml:space="preserve">
<g>
	<path fill="#7C7C7C" d="M183.206,171.48H14.663c-2.368,0-4.285-1.916-4.285-4.284V42.928c0-2.366,1.917-4.285,4.285-4.285h168.543
		c2.371,0,4.29,1.919,4.29,4.285v124.268C187.496,169.564,185.577,171.48,183.206,171.48z M18.948,162.908h159.975V47.215H18.948
		V162.908z"/>
	<path fill="#7C7C7C" d="M99.471,153.803c-27.17,0-49.28-22.104-49.28-49.275c0-27.173,22.11-49.279,49.28-49.279
		c27.171,0,49.278,22.106,49.278,49.279C148.75,131.699,126.642,153.803,99.471,153.803z M99.471,63.819
		c-22.447,0-40.711,18.261-40.711,40.708s18.264,40.708,40.711,40.708s40.71-18.261,40.71-40.708S121.917,63.819,99.471,63.819z"/>
	<path fill="#7C7C7C" d="M99.683,138.37c-18.593,0-33.713-15.126-33.713-33.716c0-18.591,15.12-33.715,33.713-33.715
		c18.59,0,33.718,15.124,33.718,33.715C133.401,123.244,118.273,138.37,99.683,138.37z M99.683,75.223
		c-16.228,0-29.429,13.204-29.429,29.431c0,16.225,13.201,29.429,29.429,29.429c16.229,0,29.429-13.204,29.429-29.429
		C129.112,88.427,115.913,75.223,99.683,75.223z"/>
	<path fill="#7C7C7C" d="M170.798,45.339h-33.832c-1.778,0-3.215-1.437-3.215-3.214V30.073c0-1.775,1.437-3.214,3.215-3.214h33.832
		c1.778,0,3.215,1.439,3.215,3.214v12.052C174.013,43.902,172.577,45.339,170.798,45.339z M140.181,38.911h27.402v-5.624h-27.402
		V38.911z"/>
</g>
<g>
	<path fill="#F58220" d="M384.539,171.6H215.996c-2.367,0-4.285-1.916-4.285-4.285V43.046c0-2.365,1.918-4.285,4.285-4.285h168.543
		c2.371,0,4.291,1.92,4.291,4.285v124.268C388.83,169.684,386.91,171.6,384.539,171.6z M220.281,163.027h159.975V47.333H220.281
		V163.027z"/>
	<path fill="#F58220" d="M300.805,153.922c-27.17,0-49.279-22.104-49.279-49.275c0-27.173,22.109-49.28,49.279-49.28
		c27.172,0,49.279,22.106,49.279,49.28C350.084,131.818,327.977,153.922,300.805,153.922z M300.805,63.938
		c-22.447,0-40.711,18.261-40.711,40.708c0,22.447,18.264,40.707,40.711,40.707s40.711-18.26,40.711-40.707
		C341.516,82.199,323.252,63.938,300.805,63.938z"/>
	<path fill="#F58220" d="M301.018,138.488c-18.594,0-33.713-15.125-33.713-33.715c0-18.592,15.119-33.715,33.713-33.715
		c18.59,0,33.717,15.123,33.717,33.715C334.734,123.363,319.607,138.488,301.018,138.488z M301.018,75.341
		c-16.229,0-29.43,13.205-29.43,29.432c0,16.225,13.201,29.428,29.43,29.428s29.428-13.203,29.428-29.428
		C330.445,88.545,317.246,75.341,301.018,75.341z"/>
	<path fill="#F58220" d="M372.133,45.458h-33.832c-1.779,0-3.215-1.437-3.215-3.214V30.192c0-1.774,1.436-3.214,3.215-3.214h33.832
		c1.777,0,3.215,1.439,3.215,3.214v12.052C375.348,44.021,373.91,45.458,372.133,45.458z M341.516,39.03h27.402v-5.624h-27.402
		V39.03z"/>
</g>
</svg>
