<?xml version="1.0" encoding="utf-8"?>
<!-- Generator: Adobe Illustrator 15.1.0, SVG Export Plug-In . SVG Version: 6.00 Build 0)  -->
<!DOCTYPE svg PUBLIC "-//W3C//DTD SVG 1.1//EN" "http://www.w3.org/Graphics/SVG/1.1/DTD/svg11.dtd">
<svg version="1.1" id="Layer_1" xmlns="http://www.w3.org/2000/svg" xmlns:xlink="http://www.w3.org/1999/xlink" x="0px" y="0px"
	 width="300px" height="400px" viewBox="0 0 300 400" enable-background="new 0 0 300 400" xml:space="preserve">
<g>
	<g>
		<path fill="#58595B" d="M160.866,216.748c-2.594,8.432-7.397,15.321-10.713,15.321c-3.312,0-8.127-6.89-10.709-15.321
			l-17.3-56.276c-2.586-8.426,2.494-15.306,11.309-15.306h33.375c8.829,0,13.914,6.88,11.321,15.306L160.866,216.748z"/>
		<path fill="#58595B" d="M129.435,221.073c4.117,7.794,5.586,16.069,3.245,18.403c-2.333,2.338-10.624,0.869-18.409-3.248
			l-52.015-27.562c-7.785-4.126-9.062-12.602-2.834-18.838l23.619-23.604c6.221-6.231,14.691-4.956,18.822,2.826L129.435,221.073z"
			/>
		<path fill="#58595B" d="M110.251,246.363c8.427,2.584,15.31,7.412,15.31,10.724c0,3.292-6.883,8.117-15.31,10.708l-56.286,17.294
			c-8.415,2.574-15.31-2.511-15.31-11.327v-33.378c0-8.801,6.895-13.902,15.31-11.312L110.251,246.363z"/>
		<path fill="#58595B" d="M114.571,277.805c7.796-4.123,16.075-5.593,18.404-3.254c2.333,2.333,0.878,10.618-3.248,18.403
			l-27.561,52.022c-4.143,7.782-12.61,9.058-18.838,2.832l-23.611-23.609c-6.224-6.224-4.962-14.707,2.827-18.838L114.571,277.805z"
			/>
		<path fill="#58595B" d="M139.876,296.983c2.567-8.43,7.388-15.319,10.694-15.319c3.311,0,8.125,6.883,10.73,15.31l17.277,56.279
			c2.593,8.425-2.492,15.323-11.318,15.323h-33.378c-8.822,0-13.895-6.898-11.309-15.323L139.876,296.983z"/>
		<path fill="#58595B" d="M171.301,292.649c-4.119-7.782-5.586-16.067-3.247-18.401c2.328-2.341,10.614-0.869,18.387,3.25
			l52.032,27.577c7.797,4.124,9.046,12.601,2.829,18.829l-23.606,23.595c-6.224,6.24-14.71,4.97-18.826-2.822L171.301,292.649z"/>
		<path fill="#58595B" d="M190.47,267.36c-8.42-2.583-15.31-7.411-15.31-10.708c0-3.302,6.89-8.13,15.31-10.714l56.284-17.286
			c8.42-2.592,15.318,2.511,15.318,11.313v33.373c0,8.821-6.898,13.906-15.318,11.315L190.47,267.36z"/>
		<path fill="#58595B" d="M186.157,235.92c-7.785,4.126-16.082,5.595-18.416,3.264c-2.333-2.341-0.871-10.612,3.26-18.408
			l27.572-52.021c4.124-7.791,12.592-9.063,18.815-2.83L241,189.523c6.235,6.238,4.957,14.703-2.834,18.843L186.157,235.92z"/>
	</g>
	<g>
		<path fill="#6D6E70" d="M154.584,205.213c-1.36,10.924-5.806,20.454-9.866,21.169c-4.065,0.719-11.502-6.707-16.51-16.523
			l-33.513-65.53c-5.009-9.806-0.236-19.396,10.607-21.296l41.094-7.251c10.851-1.924,18.611,5.462,17.261,16.402L154.584,205.213z"
			/>
		<path fill="#6D6E70" d="M116.822,217.357c6.771,8.685,10.371,18.562,7.99,21.949c-2.35,3.385-12.87,3.37-23.352-0.015
			l-70.018-22.646c-10.489-3.387-13.883-13.543-7.572-22.559l23.942-34.181c6.311-9.019,17.012-9.293,23.784-0.609L116.822,217.357z
			"/>
		<path fill="#6D6E70" d="M98.709,252.646c10.931,1.365,20.465,5.796,21.172,9.868c0.725,4.062-6.717,11.492-16.512,16.504
			l-65.532,33.506c-9.812,5.012-19.398,0.241-21.314-10.614l-7.244-41.085c-1.901-10.848,5.47-18.611,16.394-17.248L98.709,252.646z
			"/>
		<path fill="#6D6E70" d="M110.858,290.417c8.687-6.778,18.576-10.366,21.958-8.011c3.359,2.371,3.359,12.891-0.023,23.363
			l-22.641,70.021c-3.389,10.484-13.541,13.89-22.562,7.567l-34.191-23.922c-9.022-6.32-9.287-17.028-0.6-23.803L110.858,290.417z"
			/>
		<path fill="#6D6E70" d="M146.152,308.523c1.355-10.931,5.798-20.459,9.863-21.177c4.061-0.718,11.491,6.72,16.512,16.517
			l33.494,65.54c5.021,9.807,0.243,19.396-10.612,21.304l-41.084,7.246c-10.849,1.913-18.603-5.47-17.254-16.391L146.152,308.523z"
			/>
		<path fill="#6D6E70" d="M183.911,296.376c-6.77-8.688-10.376-18.571-8.007-21.953c2.374-3.385,12.875-3.37,23.352,0.007
			l70.042,22.653c10.484,3.392,13.878,13.538,7.567,22.561l-23.919,34.179c-6.335,9.024-17.036,9.306-23.808,0.613L183.911,296.376z
			"/>
		<path fill="#6D6E70" d="M202.02,261.083c-10.931-1.375-20.459-5.806-21.172-9.865c-0.718-4.062,6.7-11.5,16.517-16.521
			l65.535-33.487c9.815-5.021,19.397-0.248,21.313,10.61l7.236,41.084c1.908,10.844-5.463,18.609-16.389,17.254L202.02,261.083z"/>
		<path fill="#6D6E70" d="M189.87,223.31c-8.68,6.767-18.569,10.383-21.951,8.012c-3.366-2.364-3.366-12.882,0.012-23.348
			l22.646-70.039c3.401-10.479,13.555-13.883,22.575-7.566l34.186,23.937c9.003,6.306,9.279,17.028,0.604,23.789L189.87,223.31z"/>
	</g>
	<g>
		<path fill="#808184" d="M146.034,210.421c0.505,9.896-1.951,19.044-5.435,20.314c-3.489,1.266-11.235-4.162-17.218-12.069
			l-39.935-52.847c-5.98-7.904-3.236-17.147,6.063-20.539l35.303-12.837c9.311-3.392,17.339,1.936,17.851,11.833L146.034,210.421z"
			/>
		<path fill="#808184" d="M114.453,227.081c7.378,6.651,12.093,14.843,10.532,18.21c-1.568,3.373-10.896,5.005-20.719,3.638
			l-65.599-9.122c-9.806-1.36-14.426-9.834-10.229-18.814l15.874-34.042c4.183-8.983,13.63-10.895,20.99-4.251L114.453,227.081z"/>
		<path fill="#808184" d="M103.917,261.206c9.894-0.506,19.053,1.927,20.331,5.423c1.25,3.495-4.171,11.244-12.081,17.228
			l-52.852,39.927c-7.907,5.983-17.147,3.246-20.541-6.064l-12.841-35.294c-3.375-9.304,1.939-17.341,11.845-17.849L103.917,261.206
			z"/>
		<path fill="#808184" d="M120.582,292.77c6.653-7.354,14.849-12.088,18.208-10.524c3.377,1.578,5.009,10.884,3.654,20.712
			l-9.138,65.596c-1.363,9.828-9.835,14.427-18.822,10.246l-34.025-15.872c-8.992-4.188-10.895-13.63-4.266-20.999L120.582,292.77z"
			/>
		<path fill="#808184" d="M154.702,303.313c-0.513-9.895,1.927-19.042,5.432-20.312c3.488-1.282,11.238,4.152,17.214,12.069
			l39.941,52.845c5.964,7.902,3.24,17.147-6.077,20.546l-35.284,12.842c-9.317,3.387-17.343-1.941-17.862-11.841L154.702,303.313z"
			/>
		<path fill="#808184" d="M186.269,286.646c-7.341-6.648-12.086-14.833-10.529-18.203c1.577-3.37,10.896-5.015,20.726-3.645
			l65.596,9.131c9.818,1.36,14.427,9.833,10.236,18.815l-15.869,34.039c-4.19,8.984-13.647,10.9-20.995,4.259L186.269,286.646z"/>
		<path fill="#808184" d="M196.816,252.535c-9.906,0.494-19.044-1.951-20.329-5.439c-1.272-3.486,4.155-11.235,12.074-17.216
			l52.835-39.93c7.924-5.976,17.164-3.252,20.558,6.068l12.842,35.289c3.39,9.312-1.927,17.351-11.833,17.852L196.816,252.535z"/>
		<path fill="#808184" d="M180.135,220.955c-6.642,7.354-14.838,12.102-18.196,10.529c-3.365-1.573-5.005-10.891-3.649-20.712
			l9.129-65.601c1.372-9.817,9.847-14.422,18.822-10.229l34.036,15.856c8.98,4.199,10.889,13.646,4.254,21L180.135,220.955z"/>
	</g>
	<g>
		<path fill="#231F20" d="M156.646,60.631c-1.537,5.041-4.431,9.166-6.405,9.166c-1.986,0-4.873-4.125-6.41-9.166l-10.354-33.685
			c-1.557-5.047,1.498-9.176,6.76-9.176h19.993c5.274,0,8.316,4.129,6.776,9.176L156.646,60.631z"/>
		<path fill="#231F20" d="M137.819,63.214c2.48,4.667,3.359,9.627,1.968,11.023c-1.408,1.394-6.37,0.519-11.03-1.947L97.613,55.788
			c-4.662-2.472-5.416-7.546-1.691-11.267l14.131-14.14c3.723-3.73,8.798-2.97,11.271,1.691L137.819,63.214z"/>
		<path fill="#231F20" d="M126.345,78.362c5.057,1.542,9.168,4.431,9.168,6.409c0,1.979-4.112,4.864-9.168,6.41l-33.688,10.356
			c-5.045,1.547-9.183-1.502-9.183-6.77V74.776c0-5.273,4.138-8.317,9.183-6.77L126.345,78.362z"/>
		<path fill="#231F20" d="M128.931,97.187c4.667-2.478,9.629-3.35,11.025-1.95c1.391,1.394,0.52,6.354-1.937,11.022l-16.519,31.138
			c-2.475,4.657-7.542,5.427-11.266,1.688l-14.131-14.131c-3.741-3.73-2.969-8.798,1.68-11.268L128.931,97.187z"/>
		<path fill="#231F20" d="M144.076,108.659c1.552-5.043,4.438-9.171,6.417-9.171c1.97,0,4.875,4.127,6.424,9.171l10.343,33.69
			c1.538,5.044-1.497,9.178-6.778,9.178H140.5c-5.286,0-8.314-4.134-6.784-9.178L144.076,108.659z"/>
		<path fill="#231F20" d="M162.897,106.076c-2.468-4.667-3.347-9.623-1.948-11.028c1.396-1.394,6.357-0.519,11.013,1.951
			l31.148,16.504c4.667,2.473,5.428,7.552,1.696,11.276l-14.136,14.135c-3.725,3.729-8.791,2.96-11.262-1.697L162.897,106.076z"/>
		<path fill="#231F20" d="M174.367,90.931c-5.033-1.559-9.16-4.44-9.16-6.414c0-1.971,4.127-4.858,9.16-6.417l33.711-10.351
			c5.033-1.549,9.156,1.5,9.156,6.783V94.5c0,5.288-4.123,8.341-9.156,6.792L174.367,90.931z"/>
		<path fill="#231F20" d="M171.785,72.107c-4.65,2.469-9.617,3.345-11.009,1.951c-1.407-1.405-0.536-6.362,1.939-11.017
			l16.505-31.146c2.482-4.667,7.548-5.424,11.272-1.695l14.132,14.131c3.736,3.733,2.976,8.807-1.696,11.275L171.785,72.107z"/>
	</g>
	<g>
		<path fill="#404041" d="M152.881,53.716c-0.796,6.541-3.465,12.251-5.888,12.685c-2.449,0.426-6.895-4.02-9.882-9.897
			l-20.076-39.234c-3-5.875-0.123-11.606,6.365-12.752l24.597-4.334c6.488-1.155,11.143,3.27,10.329,9.812L152.881,53.716z"/>
		<path fill="#404041" d="M130.282,60.987c4.053,5.203,6.209,11.12,4.797,13.144c-1.426,2.018-7.721,2.018-13.989,0l-41.921-13.56
			c-6.278-2.036-8.309-8.117-4.544-13.509l14.343-20.466c3.777-5.41,10.194-5.568,14.235-0.362L130.282,60.987z"/>
		<path fill="#404041" d="M119.439,82.113c6.552,0.819,12.251,3.471,12.676,5.908c0.423,2.442-4.02,6.887-9.889,9.896l-39.24,20.048
			c-5.869,3.004-11.602,0.146-12.745-6.35l-4.339-24.597c-1.148-6.494,3.267-11.146,9.807-10.333L119.439,82.113z"/>
		<path fill="#404041" d="M126.704,104.729c5.215-4.051,11.115-6.207,13.153-4.793c2.026,1.42,2.015,7.716-0.017,13.986
			l-13.548,41.924c-2.029,6.276-8.12,8.305-13.519,4.541l-20.458-14.34c-5.399-3.778-5.562-10.192-0.366-14.236L126.704,104.729z"/>
		<path fill="#404041" d="M147.848,115.575c0.808-6.55,3.46-12.248,5.893-12.681c2.436-0.436,6.89,4.022,9.882,9.892l20.067,39.227
			c2.992,5.875,0.139,11.61-6.361,12.758l-24.589,4.337c-6.5,1.149-11.136-3.27-10.331-9.811L147.848,115.575z"/>
		<path fill="#404041" d="M170.441,108.292c-4.036-5.201-6.2-11.105-4.78-13.135c1.41-2.024,7.714-2.024,13.984,0.015l41.921,13.546
			c6.275,2.031,8.313,8.118,4.525,13.519l-14.32,20.454c-3.781,5.398-10.193,5.563-14.247,0.365L170.441,108.292z"/>
		<path fill="#404041" d="M181.289,87.172c-6.54-0.814-12.243-3.471-12.676-5.908c-0.43-2.442,4.015-6.889,9.901-9.885
			l39.216-20.056c5.869-3,11.613-0.15,12.764,6.352l4.337,24.591c1.143,6.502-3.276,11.149-9.812,10.341L181.289,87.172z"/>
		<path fill="#404041" d="M174.018,64.559c-5.208,4.052-11.108,6.214-13.14,4.794c-2.028-1.418-2.028-7.706,0-13.987l13.564-41.921
			c2.026-6.279,8.108-8.309,13.505-4.529l20.473,14.322c5.397,3.786,5.551,10.195,0.354,14.243L174.018,64.559z"/>
	</g>
	<g>
		<path fill="#58595B" d="M147.777,56.839c0.295,5.922-1.16,11.403-3.252,12.158c-2.104,0.757-6.736-2.485-10.324-7.223
			l-23.902-31.635c-3.571-4.732-1.944-10.271,3.638-12.298l21.131-7.69c5.579-2.03,10.388,1.159,10.69,7.087L147.777,56.839z"/>
		<path fill="#58595B" d="M128.86,66.815c4.41,3.983,7.249,8.875,6.313,10.893c-0.945,2.03-6.523,3.003-12.412,2.189l-39.264-5.463
			c-5.874-0.818-8.638-5.883-6.134-11.267l9.504-20.371c2.511-5.385,8.156-6.536,12.57-2.549L128.86,66.815z"/>
		<path fill="#58595B" d="M122.55,87.237c5.94-0.298,11.422,1.163,12.175,3.252c0.749,2.098-2.487,6.736-7.23,10.312l-31.64,23.907
			c-4.73,3.578-10.269,1.939-12.286-3.633l-7.695-21.128c-2.026-5.578,1.155-10.383,7.095-10.687L122.55,87.237z"/>
		<path fill="#58595B" d="M132.538,106.135c3.977-4.405,8.892-7.228,10.902-6.293c2.015,0.944,2.988,6.523,2.175,12.399
			l-5.458,39.266c-0.829,5.89-5.893,8.638-11.273,6.135l-20.376-9.505c-5.374-2.505-6.517-8.165-2.546-12.563L132.538,106.135z"/>
		<path fill="#58595B" d="M152.968,112.453c-0.305-5.928,1.15-11.401,3.26-12.168c2.062-0.754,6.725,2.495,10.308,7.229
			l23.883,31.635c3.588,4.729,1.944,10.274-3.63,12.304l-21.127,7.684c-5.574,2.03-10.383-1.164-10.683-7.091L152.968,112.453z"/>
		<path fill="#58595B" d="M171.856,102.473c-4.398-3.983-7.226-8.881-6.288-10.896c0.936-2.022,6.51-3.005,12.391-2.184
			l39.275,5.463c5.882,0.812,8.64,5.886,6.137,11.266l-9.5,20.372c-2.518,5.38-8.179,6.529-12.576,2.558L171.856,102.473z"/>
		<path fill="#58595B" d="M178.167,82.052c-5.917,0.303-11.392-1.159-12.164-3.256c-0.76-2.083,2.499-6.721,7.23-10.307
			l31.628-23.903c4.749-3.577,10.271-1.951,12.31,3.629l7.69,21.129c2.021,5.574-1.162,10.38-7.079,10.678L178.167,82.052z"/>
		<path fill="#58595B" d="M168.195,63.147c-3.982,4.399-8.893,7.245-10.9,6.296c-2.017-0.934-2.995-6.515-2.175-12.389l5.468-39.285
			c0.814-5.872,5.888-8.635,11.249-6.119l20.391,9.499c5.361,2.501,6.504,8.162,2.534,12.57L168.195,63.147z"/>
	</g>
</g>
</svg>
