<?xml version="1.0" encoding="utf-8"?>
<!-- Generator: Adobe Illustrator 15.1.0, SVG Export Plug-In . SVG Version: 6.00 Build 0)  -->
<!DOCTYPE svg PUBLIC "-//W3C//DTD SVG 1.1//EN" "http://www.w3.org/Graphics/SVG/1.1/DTD/svg11.dtd">
<svg version="1.1" xmlns="http://www.w3.org/2000/svg" xmlns:xlink="http://www.w3.org/1999/xlink" x="0px" y="0px" width="200px"
	 height="200px" viewBox="0 0 200 200" enable-background="new 0 0 200 200" xml:space="preserve">
<g id="Layer_1">
	<g id="Layer_2" display="none">
		<line display="inline" fill="none" x1="0" y1="0" x2="200" y2="200"/>
		<line display="inline" fill="none" stroke="#000000" x1="0" y1="200" x2="200" y2="0"/>
		<line display="inline" fill="none" stroke="#000000" x1="0" y1="0" x2="199.998" y2="199.998"/>
	</g>
	<g id="Layer_3">
		<g>
			<g>
				<g>
					<path fill="#F05A22" d="M104.335,83.442c-1.07,3.477-3.057,6.322-4.425,6.322c-1.363,0-3.354-2.846-4.42-6.322l-7.142-23.234
						c-1.066-3.475,1.031-6.321,4.673-6.321h13.777c3.643,0,5.739,2.846,4.674,6.321L104.335,83.442z"/>
					<path fill="#F05A22" d="M91.357,85.227c1.704,3.215,2.308,6.633,1.344,7.598c-0.964,0.963-4.387,0.359-7.6-1.344L63.626,80.102
						c-3.213-1.703-3.738-5.203-1.168-7.773l9.746-9.744c2.571-2.574,6.065-2.047,7.771,1.166L91.357,85.227z"/>
					<path fill="#F05A22" d="M83.442,95.666c3.475,1.066,6.318,3.059,6.318,4.424c0,1.359-2.844,3.352-6.318,4.422l-23.237,7.139
						c-3.477,1.064-6.319-1.035-6.319-4.674V93.199c0-3.639,2.843-5.74,6.319-4.672L83.442,95.666z"/>
					<path fill="#F05A22" d="M85.223,108.646c3.218-1.705,6.635-2.309,7.6-1.344c0.964,0.963,0.359,4.381-1.344,7.596
						l-11.378,21.478c-1.708,3.213-5.204,3.739-7.774,1.17l-9.746-9.748c-2.571-2.569-2.05-6.069,1.168-7.772L85.223,108.646z"/>
					<path fill="#F05A22" d="M95.664,116.561c1.066-3.477,3.058-6.322,4.421-6.322c1.368,0,3.354,2.843,4.426,6.32l7.137,23.234
						c1.066,3.477-1.031,6.322-4.674,6.322H93.196c-3.642,0-5.739-2.846-4.674-6.322L95.664,116.561z"/>
					<path fill="#F05A22" d="M108.646,114.775c-1.705-3.213-2.31-6.637-1.345-7.6c0.963-0.965,4.381-0.359,7.595,1.344
						l21.479,11.381c3.214,1.705,3.734,5.203,1.164,7.775l-9.742,9.742c-2.57,2.574-6.07,2.049-7.773-1.166L108.646,114.775z"/>
					<path fill="#F05A22" d="M116.555,104.334c-3.476-1.068-6.317-3.059-6.317-4.422c0-1.363,2.843-3.355,6.317-4.42l23.237-7.141
						c3.477-1.068,6.322,1.035,6.322,4.672v13.779c0,3.64-2.848,5.74-6.322,4.672L116.555,104.334z"/>
					<path fill="#F05A22" d="M114.772,91.354c-3.211,1.703-6.635,2.311-7.599,1.348c-0.964-0.965-0.36-4.383,1.345-7.6
						l11.381-21.475c1.705-3.215,5.201-3.74,7.771-1.168l9.747,9.742c2.57,2.572,2.044,6.07-1.168,7.775L114.772,91.354z"/>
				</g>
				<g>
					<path fill="#F26F21" d="M101.741,78.676c-0.562,4.51-2.396,8.447-4.071,8.742c-1.679,0.297-4.751-2.773-6.814-6.824
						L77.02,53.546c-2.07-4.051-0.098-8.008,4.381-8.797l16.962-2.992c4.479-0.791,7.682,2.258,7.123,6.77L101.741,78.676z"/>
					<path fill="#F26F21" d="M86.152,83.692c2.794,3.584,4.284,7.662,3.301,9.059c-0.974,1.398-5.316,1.393-9.645-0.004
						l-28.903-9.348c-4.328-1.4-5.73-5.592-3.126-9.312l9.884-14.111c2.604-3.725,7.024-3.84,9.819-0.252L86.152,83.692z"/>
					<path fill="#F26F21" d="M78.674,98.26c4.513,0.562,8.447,2.393,8.744,4.072c0.297,1.676-2.775,4.746-6.82,6.814l-27.054,13.832
						c-4.051,2.068-8.009,0.1-8.797-4.379l-2.989-16.965c-0.788-4.477,2.254-7.682,6.768-7.121L78.674,98.26z"/>
					<path fill="#F26F21" d="M83.69,113.85c3.588-2.797,7.667-4.279,9.063-3.305c1.394,0.979,1.394,5.32-0.01,9.645l-9.347,28.908
						c-1.397,4.326-5.589,5.732-9.313,3.125l-14.113-9.881c-3.725-2.607-3.836-7.027-0.248-9.822L83.69,113.85z"/>
					<path fill="#F26F21" d="M98.26,121.328c0.561-4.514,2.391-8.447,4.069-8.744c1.681-0.297,4.746,2.773,6.816,6.82l13.83,27.055
						c2.069,4.047,0.098,8.008-4.381,8.797l-16.963,2.988c-4.479,0.791-7.682-2.256-7.122-6.769L98.26,121.328z"/>
					<path fill="#F26F21" d="M113.848,116.311c-2.794-3.588-4.282-7.664-3.306-9.062c0.979-1.396,5.316-1.394,9.646,0.006
						l28.907,9.353c4.327,1.396,5.729,5.59,3.125,9.312l-9.878,14.11c-2.609,3.726-7.029,3.836-9.824,0.25L113.848,116.311z"/>
					<path fill="#F26F21" d="M121.325,101.742c-4.512-0.564-8.445-2.396-8.742-4.072c-0.299-1.68,2.77-4.746,6.82-6.818
						l27.054-13.826c4.05-2.072,8.008-0.102,8.796,4.377l2.99,16.961c0.787,4.479-2.254,7.682-6.768,7.125L121.325,101.742z"/>
					<path fill="#F26F21" d="M116.307,86.149c-3.583,2.795-7.661,4.285-9.06,3.307c-1.393-0.977-1.393-5.316,0.005-9.641
						l9.349-28.91c1.4-4.328,5.594-5.732,9.315-3.125l14.114,9.878c3.72,2.607,3.83,7.031,0.248,9.822L116.307,86.149z"/>
				</g>
				<g>
					<path fill="#F48120" d="M98.211,80.828c0.21,4.084-0.804,7.861-2.244,8.383c-1.441,0.525-4.64-1.715-7.107-4.98L72.375,62.416
						c-2.469-3.264-1.339-7.082,2.502-8.481l14.571-5.3c3.846-1.401,7.161,0.799,7.371,4.886L98.211,80.828z"/>
					<path fill="#F48120" d="M85.173,87.707c3.044,2.742,4.996,6.125,4.349,7.514c-0.647,1.395-4.498,2.07-8.555,1.504L53.89,92.959
						c-4.051-0.564-5.954-4.061-4.226-7.768l6.553-14.053c1.729-3.709,5.627-4.498,8.665-1.756L85.173,87.707z"/>
					<path fill="#F48120" d="M80.826,101.791c4.084-0.209,7.862,0.799,8.388,2.238c0.521,1.444-1.718,4.643-4.984,7.11
						l-21.815,16.486c-3.267,2.469-7.079,1.34-8.48-2.507l-5.302-14.565c-1.397-3.848,0.799-7.162,4.888-7.371L80.826,101.791z"/>
					<path fill="#F48120" d="M87.705,114.824c2.746-3.039,6.129-4.99,7.517-4.346c1.393,0.649,2.069,4.495,1.504,8.551l-3.768,27.08
						c-0.564,4.057-4.061,5.953-7.771,4.229l-14.05-6.553c-3.709-1.729-4.498-5.627-1.758-8.67L87.705,114.824z"/>
					<path fill="#F48120" d="M101.789,119.176c-0.209-4.084,0.799-7.861,2.243-8.387c1.441-0.527,4.641,1.717,7.109,4.98
						l16.483,21.817c2.463,3.262,1.339,7.082-2.507,8.479l-14.567,5.303c-3.846,1.396-7.161-0.801-7.37-4.889L101.789,119.176z"/>
					<path fill="#F48120" d="M114.821,112.291c-3.032-2.742-4.989-6.121-4.348-7.514c0.652-1.392,4.498-2.066,8.555-1.502
						l27.082,3.77c4.051,0.561,5.953,4.059,4.226,7.766l-6.552,14.053c-1.729,3.707-5.635,4.498-8.666,1.759L114.821,112.291z"/>
					<path fill="#F48120" d="M119.174,98.213c-4.089,0.205-7.86-0.803-8.39-2.244c-0.524-1.441,1.716-4.641,4.986-7.107
						l21.812-16.484c3.271-2.469,7.083-1.342,8.485,2.504l5.301,14.568c1.396,3.844-0.799,7.162-4.883,7.369L119.174,98.213z"/>
					<path fill="#F48120" d="M112.29,85.176c-2.74,3.037-6.124,4.994-7.512,4.348c-1.394-0.648-2.069-4.496-1.504-8.549
						l3.769-27.083c0.563-4.053,4.06-5.956,7.765-4.226l14.055,6.549c3.705,1.732,4.494,5.631,1.754,8.668L112.29,85.176z"/>
				</g>
			</g>
		</g>
	</g>
</g>
<g id="Layer_2_1_" display="none">
	<line display="inline" fill="none" stroke="#000000" x1="0" y1="200" x2="200" y2="0"/>
	<line display="inline" fill="none" stroke="#000000" x1="0.001" y1="0.001" x2="199.999" y2="199.999"/>
</g>
</svg>
