<?xml version="1.0" encoding="utf-8"?>
<!-- Generator: Adobe Illustrator 15.1.0, SVG Export Plug-In . SVG Version: 6.00 Build 0)  -->
<!DOCTYPE svg PUBLIC "-//W3C//DTD SVG 1.1//EN" "http://www.w3.org/Graphics/SVG/1.1/DTD/svg11.dtd">
<svg version="1.1" xmlns="http://www.w3.org/2000/svg" xmlns:xlink="http://www.w3.org/1999/xlink" x="0px" y="0px" width="200px"
	 height="200px" viewBox="0 0 200 200" enable-background="new 0 0 200 200" xml:space="preserve">
<g id="Layer_1">
	<g>
		<g>
			<g>
				<path fill="#BE1E2D" d="M102.593,90.087c-0.638,2.081-1.831,3.785-2.648,3.785c-0.813,0-2.006-1.705-2.644-3.785l-4.274-13.909
					c-0.643-2.081,0.618-3.785,2.794-3.785h8.252c2.177,0,3.433,1.704,2.795,3.785L102.593,90.087z"/>
				<path fill="#BE1E2D" d="M94.823,91.155c1.021,1.926,1.382,3.973,0.808,4.549c-0.579,0.577-2.629,0.214-4.552-0.806
					l-12.857-6.811c-1.924-1.02-2.234-3.116-0.696-4.654l5.832-5.835c1.539-1.541,3.632-1.225,4.654,0.699L94.823,91.155z"/>
				<path fill="#BE1E2D" d="M90.085,97.407c2.085,0.638,3.783,1.83,3.783,2.647c0,0.816-1.698,2.005-3.783,2.646l-13.908,4.275
					c-2.084,0.637-3.787-0.621-3.787-2.797v-8.25c0-2.178,1.703-3.437,3.787-2.797L90.085,97.407z"/>
				<path fill="#BE1E2D" d="M91.151,105.175c1.929-1.02,3.974-1.381,4.553-0.803c0.574,0.578,0.214,2.623-0.804,4.547l-6.816,12.857
					c-1.021,1.924-3.115,2.24-4.653,0.699l-5.833-5.834c-1.543-1.539-1.226-3.633,0.696-4.652L91.151,105.175z"/>
				<path fill="#BE1E2D" d="M97.402,109.915c0.643-2.084,1.832-3.785,2.648-3.785c0.818,0,2.011,1.701,2.648,3.783l4.274,13.908
					c0.638,2.084-0.617,3.787-2.799,3.787h-8.247c-2.181,0-3.438-1.703-2.799-3.787L97.402,109.915z"/>
				<path fill="#BE1E2D" d="M105.173,108.847c-1.018-1.926-1.383-3.973-0.803-4.549c0.578-0.58,2.623-0.217,4.547,0.803
					l12.857,6.812c1.928,1.021,2.239,3.117,0.7,4.658l-5.837,5.832c-1.538,1.541-3.632,1.223-4.649-0.699L105.173,108.847z"/>
				<path fill="#BE1E2D" d="M109.91,102.595c-2.079-0.639-3.782-1.832-3.782-2.648c0-0.814,1.703-2.008,3.782-2.647l13.913-4.272
					c2.079-0.64,3.783,0.619,3.783,2.797v8.25c0,2.178-1.704,3.438-3.783,2.797L109.91,102.595z"/>
				<path fill="#BE1E2D" d="M108.844,94.823c-1.923,1.02-3.973,1.383-4.548,0.806c-0.578-0.577-0.219-2.624,0.804-4.547
					l6.812-12.857c1.021-1.926,3.116-2.24,4.653-0.701l5.833,5.834c1.543,1.539,1.227,3.634-0.696,4.654L108.844,94.823z"/>
			</g>
			<g>
				<path fill="#CD181F" d="M101.04,87.234c-0.332,2.699-1.432,5.056-2.435,5.233c-1.008,0.178-2.843-1.66-4.08-4.085l-8.286-16.194
					c-1.235-2.424-0.053-4.792,2.625-5.268l10.155-1.789c2.683-0.475,4.6,1.351,4.265,4.051L101.04,87.234z"/>
				<path fill="#CD181F" d="M91.707,90.235c1.675,2.147,2.565,4.588,1.981,5.426c-0.589,0.834-3.185,0.832-5.773-0.002
					l-17.308-5.597c-2.59-0.839-3.433-3.349-1.875-5.577l5.921-8.449c1.558-2.23,4.206-2.295,5.875-0.148L91.707,90.235z"/>
				<path fill="#CD181F" d="M87.233,98.957c2.702,0.336,5.058,1.434,5.233,2.439c0.175,1.006-1.66,2.842-4.085,4.082l-16.197,8.279
					c-2.424,1.238-4.791,0.061-5.263-2.621l-1.792-10.156c-0.472-2.679,1.349-4.601,4.051-4.265L87.233,98.957z"/>
				<path fill="#CD181F" d="M90.231,108.292c2.152-1.676,4.592-2.564,5.428-1.979c0.838,0.586,0.833,3.184-0.005,5.773
					l-5.593,17.307c-0.837,2.59-3.35,3.43-5.579,1.871l-8.447-5.914c-2.229-1.562-2.297-4.209-0.15-5.881L90.231,108.292z"/>
				<path fill="#CD181F" d="M98.961,112.769c0.331-2.703,1.427-5.057,2.434-5.234c1.004-0.18,2.844,1.66,4.08,4.082l8.281,16.197
					c1.236,2.426,0.059,4.793-2.624,5.266l-10.156,1.791c-2.677,0.473-4.595-1.352-4.259-4.053L98.961,112.769z"/>
				<path fill="#CD181F" d="M108.288,109.765c-1.669-2.146-2.56-4.59-1.977-5.424c0.585-0.838,3.185-0.834,5.774,0.002l17.307,5.598
					c2.591,0.836,3.433,3.348,1.87,5.578l-5.915,8.443c-1.559,2.23-4.207,2.299-5.882,0.152L108.288,109.765z"/>
				<path fill="#CD181F" d="M112.768,101.043c-2.702-0.336-5.058-1.434-5.233-2.437c-0.181-1.007,1.655-2.843,4.084-4.082
					l16.192-8.279c2.425-1.239,4.796-0.061,5.268,2.622l1.792,10.153c0.472,2.682-1.354,4.6-4.05,4.266L112.768,101.043z"/>
				<path fill="#CD181F" d="M109.764,91.708c-2.147,1.672-4.586,2.566-5.424,1.979c-0.837-0.584-0.837-3.182,0-5.771l5.6-17.307
					c0.837-2.593,3.35-3.432,5.574-1.872l8.451,5.915c2.229,1.561,2.293,4.209,0.146,5.881L109.764,91.708z"/>
			</g>
			<g>
				<path fill="#F05A22" d="M98.932,88.521c0.122,2.447-0.482,4.708-1.344,5.02c-0.867,0.314-2.779-1.027-4.26-2.982L83.46,77.5
					c-1.476-1.955-0.804-4.241,1.499-5.078l8.725-3.174c2.303-0.837,4.289,0.48,4.41,2.926L98.932,88.521z"/>
				<path fill="#F05A22" d="M91.123,92.64c1.82,1.643,2.994,3.666,2.604,4.498c-0.39,0.836-2.692,1.239-5.121,0.9l-16.212-2.253
					c-2.425-0.338-3.563-2.429-2.532-4.649l3.924-8.412c1.037-2.223,3.369-2.695,5.189-1.052L91.123,92.64z"/>
				<path fill="#F05A22" d="M88.518,101.071c2.449-0.123,4.714,0.48,5.024,1.342c0.312,0.863-1.027,2.779-2.983,4.258l-13.062,9.867
					c-1.952,1.479-4.235,0.805-5.072-1.498l-3.175-8.723c-0.837-2.303,0.478-4.287,2.926-4.41L88.518,101.071z"/>
				<path fill="#F05A22" d="M92.642,108.874c1.641-1.818,3.666-2.986,4.498-2.6c0.833,0.389,1.237,2.691,0.901,5.119l-2.254,16.211
					c-0.342,2.43-2.435,3.564-4.654,2.531l-8.413-3.924c-2.22-1.035-2.692-3.369-1.051-5.189L92.642,108.874z"/>
				<path fill="#F05A22" d="M101.074,111.479c-0.127-2.445,0.477-4.707,1.344-5.021c0.856-0.312,2.774,1.027,4.254,2.982
					l9.863,13.062c1.48,1.951,0.804,4.24-1.499,5.078l-8.72,3.174c-2.303,0.836-4.289-0.48-4.41-2.926L101.074,111.479z"/>
				<path fill="#F05A22" d="M108.873,107.36c-1.815-1.645-2.985-3.666-2.6-4.5c0.39-0.832,2.691-1.238,5.116-0.9l16.217,2.258
					c2.425,0.336,3.563,2.432,2.531,4.648l-3.924,8.412c-1.037,2.221-3.373,2.695-5.19,1.055L108.873,107.36z"/>
				<path fill="#F05A22" d="M111.478,98.93c-2.443,0.124-4.703-0.479-5.02-1.344c-0.315-0.862,1.027-2.777,2.984-4.255l13.057-9.868
					c1.958-1.478,4.24-0.803,5.078,1.5l3.174,8.722c0.838,2.3-0.477,4.287-2.921,4.411L111.478,98.93z"/>
				<path fill="#F05A22" d="M107.358,91.126c-1.64,1.816-3.665,2.989-4.498,2.6c-0.833-0.387-1.237-2.69-0.9-5.114l2.259-16.216
					c0.335-2.427,2.43-3.566,4.645-2.529l8.418,3.921c2.215,1.035,2.687,3.372,1.046,5.19L107.358,91.126z"/>
			</g>
		</g>
	</g>
</g>
<g id="Layer_3" display="none">
</g>
<g id="Layer_2" display="none">
	<line display="inline" fill="none" x1="0" y1="0" x2="200" y2="200"/>
	<line display="inline" fill="none" stroke="#000000" x1="0" y1="200" x2="200" y2="0"/>
	<line display="inline" fill="none" stroke="#000000" x1="0" y1="0" x2="199.998" y2="199.998"/>
</g>
</svg>
